<?xml version="1.0" encoding="utf-8"?>
<!-- Generator: Adobe Illustrator 18.0.0, SVG Export Plug-In . SVG Version: 6.00 Build 0)  -->
<svg version="1.1" id="Layer_1" xmlns="http://www.w3.org/2000/svg" xmlns:xlink="http://www.w3.org/1999/xlink" x="0px" y="0px"
	 viewBox="0 0 688 144" enable-background="new 0 0 688 144" xml:space="preserve">
<g>
	<g>
		<path d="M365.4,14.2V4.7h3c1.9,0,3.4,1.4,3.4,3.2c0,1.3-0.5,2.1-1.4,2.6l2.4,3.6h-2.3l-1.8-3h-1.4v3H365.4z M367.2,9.4h1.2
			c0.8,0,1.5-0.7,1.5-1.5c0-0.8-0.7-1.5-1.5-1.5h-1.2V9.4z"/>
		<path d="M362,71.8c0-0.2,0-0.3,0-0.5l0-0.2c-1.2-10-2.6-14.9-7.8-22.2c-0.1-4.6,0-28.8,0.1-36.2l0-1l-7.3-5.6
			c-5.4-4-10.7-5.9-16.3-6.1c-1.4,0-2.7,0.1-3.9,0.3c-1,0.2-1.9,0.4-2.4,0.6l-6,1.5L318,0.8L219,1l-2.8,1.3L215.8,1l-34.9,0.1
			L160.6,9c-10-7.9-21.6-7.9-28.5-7.8L37.4,1.3h-0.5L9.6,30l-0.3,0.4l0.9,12.9c0,0.4,0,0.9,0.1,1.3l0.6,8.4c0.1,1,0.1,2.1,0.2,2.9
			l0.4,6.4l-4.8,2.4L0,101.9l14.2,2.1l0.3,4.2c0,0,0.2,3,0.3,4.6l0.8,11.7c0.1,1.5,0.2,2.6,0.2,2.9l0.1,0.8l30.9,15.8l0.3,0.2
			l96.2-10.6c5.5-0.6,10.7-2,15.5-4l8.3,1.4l0.1,0l41.4-4.6l0.1-1c0,0,0-0.3,0-0.7l4.4,1.3L323,113.4l0.9-0.1l0.2-1l11.2,0.5l0,0
			c1.8,0.1,2.9,0,3.4,0c6.3-0.6,11.8-3.5,15.9-8.5C360.9,96.8,363.5,85.2,362,71.8"/>
		<polygon fill="#FFCC00" points="80.2,104.1 78.8,85.6 101.8,84.1 100.3,64.4 77.3,65.6 75.1,36.5 105.2,35.6 103.6,16.4 
			53.5,17.1 57.1,66.6 47.4,67.1 44.2,88 58.6,87 61.5,126.4 108.3,121.8 111.8,101.5 		"/>
		<path fill="#FFCC00" d="M154.1,85.9c0.8,8.5-5,15-12.2,15.2l-2.4-27.8C146.5,72.5,153.4,77.9,154.1,85.9 M142.8,118.3
			c16.3-1.6,30.4-11.5,28.5-31.4c-0.8-8.6-5.3-19-12.9-22.6c6-5.4,8.3-12.3,7.5-21.1c-0.8-8.3-4.7-17-10.9-22.1
			c-6.1-5-14-5.2-21-5.1l-17.8,0.2l8.7,103.9L142.8,118.3z M149.7,44.2c0.7,7.6-4.9,13-11.6,13.3l-2.1-24.8
			C142.7,32.1,149,36.9,149.7,44.2"/>
		<polygon fill="#FFCC00" points="297.5,86.1 295.8,70.9 311.6,69.8 309.7,53.5 293.9,54.3 291.2,30.3 312,29.7 310.1,13.7 
			275.7,14.1 280.1,55 274.3,55.3 272.9,72.4 282,71.8 285.5,104.2 316.1,101.1 317.8,84.4 		"/>
		<polygon fill="#FFCC00" points="271,30.9 269.5,14.2 224.3,14.8 225.8,32.2 241.5,31.7 249.3,107.8 264.1,106.3 256.2,31.3 		"/>
		<path fill="#FFCC00" d="M232.7,75l-5.8,0.4L208.6,15l-16.9,0.2l-6.5,63.1l-5.9,0.4l-1.9,17.4l6.1-0.5l-1.9,18.8l16.6-1.6l1.4-18.6
			l15.9-1.3l5,17.7l16.6-1.6l-5.2-17.4l5.7-0.5L232.7,75z M200.6,77.2l0.9-22.9l0.3-14.6l0.2,0l3.2,14.4l5.8,22.4L200.6,77.2z"/>
		<path fill="#FFCC00" d="M344,31.4c-2.5-2.2-5.3-3.9-8.1-3.9c-3.8,0-5.9,3.1-5.4,8.3c1.5,13.9,20.3,14.2,22.7,36.7
			c1.6,14.9-3.4,26.7-15.1,27.6c-3.6,0.3-8.1-0.9-11.4-3.5c0,0-0.3-15.2-0.3-15.3c2.8,2,5.5,3.2,8.7,3c4-0.2,6.8-4,6.2-9.7
			c-0.7-6.5-4.8-8.8-8.7-12.1c-8-6.3-13.2-12.5-14.5-25c-1.4-13.4,3.3-25,14.1-24.9c4,0,7.7,1.5,11.3,4.1L344,31.4z"/>
		<path d="M368.4,0c-5.2,0-9.4,4.2-9.4,9.4c0,5.2,4.2,9.4,9.4,9.4c5.2,0,9.4-4.2,9.4-9.4C377.8,4.2,373.6,0,368.4,0z M368.4,17
			c-4.2,0-7.6-3.4-7.6-7.6c0-4.2,3.4-7.6,7.6-7.6s7.6,3.4,7.6,7.6C375.9,13.6,372.6,17,368.4,17z"/>
	</g>
	<g>
		<path fill="#BF0000" d="M490.5,30c0,11-9,20-20,20c-11.1,0-20-8.9-20-20c0-11,8.9-20,20-20C481.5,10,490.5,19,490.5,30"/>
		<path fill="#FFFFFF" d="M467.8,40.7v-6.7h2.9l5,6.7h5.1l-6-8c1.9-1.4,3.1-3.6,3.1-6c0-4.1-3.3-7.4-7.4-7.4h-6.7v21.5H467.8z
			 M467.8,23.3h2.7c1.8,0,3.3,1.5,3.3,3.3s-1.5,3.3-3.3,3.3h-2.7V23.3z"/>
		<path d="M625.5,40l6.7,1.8c-1.2,3.6-4.5,7-9.5,7c-4.9,0-9.9-3.8-9.9-10.3V26h-4.9v-6.8h4.9V12h6.8v7.2h10.1V26h-10.1v12.4
			c0,2.7,2,3.4,3.1,3.4C624.3,41.9,625.1,40.8,625.5,40z M541,19.2h6.8V48H541v-1.3c-2,1.3-4.2,2-6.7,2c-7.4,0-13.5-6.8-13.5-15.1
			c0-8.3,6.1-15.1,13.5-15.1c2.4,0,4.7,0.7,6.7,2V19.2z M541,33.6c0-4.6-3-8.3-6.7-8.3c-3.7,0-6.7,3.7-6.7,8.3c0,4.6,3,8.3,6.7,8.3
			C538,41.9,541,38.2,541,33.6z M598.6,36.1c0,3.2-2.6,5.8-5.8,5.8c-3.2,0-5.8-2.6-5.8-5.8V19.2h-6.8v16.9c0,6.9,5.7,12.6,12.6,12.6
			c2.1,0,4-0.5,5.8-1.4V48h6.8V19.2h-6.8V36.1z M675.1,18.5c-2.1,0-4,0.5-5.8,1.4v-0.7h-6.8V48h6.8V31.1c0-3.2,2.6-5.8,5.8-5.8
			c3.2,0,5.8,2.6,5.8,5.8V48h6.8V31.1C687.7,24.1,682.1,18.5,675.1,18.5z M659.8,33.6c0,0.7-0.1,1.3-0.1,2l-19.3,0
			c0.7,5.2,7.7,9.4,12.8,3.2l6,3.4c-3.7,5.3-8.4,6.5-11.9,6.5c-6.8,0-14.5-6.2-14.5-15.1c0-8.5,5.9-15.1,13.5-15.1
			C653.7,18.4,659.8,25.2,659.8,33.6z M652.1,29.5c-1.3-6.8-10.3-5.6-11.5,0H652.1z M578.9,19.2h-9.7l-10.4,10.4V10H552v38h6.8V35.8
			L571,48h9.7l-15.3-15.3L578.9,19.2z M513,34.5L523.1,48h-8.6l-8.4-11.2h-4.8V48h-6.8V12h11.3c6.8,0,12.4,5.6,12.4,12.4
			C518.2,28.6,516.1,32.3,513,34.5z M511.4,24.4c0-3.1-2.5-5.6-5.6-5.6h-4.5V30h4.5C508.8,30,511.4,27.5,511.4,24.4z"/>
		<path d="M430.9,39.4h-13.1L415,48h-4.6l11.8-36h4.2l11.8,36h-4.6L430.9,39.4z M429.8,35.6l-5.4-17.8l-5.4,17.8H429.8z"/>
		<path d="M434.8,68.5c-2.7-3.7-5.4-5.4-8.9-5.4c-6.5,0-11,6.2-11,15.1c0,9,4.4,14.7,11.4,14.7c3.7,0,6.4-1.8,8.6-5.5l3.1,2.9
			c-3.1,4.4-6.8,6.4-11.7,6.4c-9.4,0-15.7-7.5-15.7-18.6c0-11,6.4-18.9,15.4-18.9c5.1,0,9,2.1,12.2,6.6L434.8,68.5z"/>
		<path d="M466.5,81.6c0,9-5.2,15.1-12.8,15.1s-12.8-6.1-12.8-15.1s5.2-15.1,12.9-15.1C461.3,66.5,466.5,72.7,466.5,81.6z
			 M445.3,81.6c0,6.5,3.6,11.3,8.4,11.3c4.8,0,8.4-4.8,8.4-11.3c0-6.6-3.5-11.3-8.5-11.3C448.8,70.3,445.3,75.1,445.3,81.6z"/>
		<path d="M475.2,69.7c1.6-2.1,4.1-3.2,6.8-3.2c3,0,5.5,1.8,6.7,4.9c2-3.3,4.8-4.9,8.2-4.9c5.3,0,8.7,4.4,8.7,11.2V96h-4.1V77.7
			c0-4.5-2-7.4-5.2-7.4c-3.3,0-5.9,3.2-5.9,7.4V96h-4.1V77.7c0-4.4-2.1-7.4-5.2-7.4c-3.1,0-5.9,3.5-5.9,7.4V96h-4.1V67.2h3.4
			L475.2,69.7z"/>
		<path d="M516.5,69.9c2.2-2.4,4.7-3.4,8.1-3.4c7.6,0,12.8,6.1,12.8,15.1c0,9-5.2,15.1-12.8,15.1c-3.3,0-5.9-1.2-8.3-4.1v10.6h-4.1
			V67.2h3.7L516.5,69.9z M516.2,81.6c0,6.5,3.5,11.3,8.4,11.3c4.8,0,8.4-4.8,8.4-11.3c0-6.5-3.6-11.3-8.5-11.3
			C519.7,70.3,516.2,75.1,516.2,81.6z"/>
		<path d="M561,92.8c-2.2,2.7-4.8,3.9-8.1,3.9c-7.5,0-12.7-6.2-12.7-15.1c0-9,5.2-15.1,12.8-15.1c3.4,0,5.8,1,8.1,3.4l0.6-2.7h3.7
			V96h-3.7L561,92.8z M544.5,81.6c0,6.5,3.6,11.3,8.4,11.3c4.8,0,8.4-4.7,8.4-11.3c0-6.6-3.5-11.3-8.4-11.3
			C548.1,70.3,544.5,75.1,544.5,81.6z"/>
		<path d="M577.5,69.5c1.7-1.8,4.9-3,7.9-3c6.2,0,10.4,4.7,10.4,11.6V96h-4.1V78c0-4.7-2.7-7.7-6.9-7.7c-3.9,0-7.4,3.6-7.4,7.5V96
			h-4.1V67.2h3.7L577.5,69.5z"/>
		<path d="M621.6,67.2l-10.3,31.3c-1.1,3.3-3.5,5.2-6.6,5.2c-2,0-3.8-0.7-5.1-2.1l1.9-3c0.9,0.8,1.8,1.2,2.9,1.2
			c1.6,0,2.4-0.7,3.2-2.8l0.6-1.7l-10-28.1h4.3l7.6,22.4l7.2-22.4H621.6z"/>
	</g>
</g>
</svg>
