<?xml version="1.0" encoding="utf-8"?>
<!-- Generator: Adobe Illustrator 23.0.0, SVG Export Plug-In . SVG Version: 6.00 Build 0)  -->
<svg version="1.1" id="Layer_1" xmlns="http://www.w3.org/2000/svg" xmlns:xlink="http://www.w3.org/1999/xlink" x="0px" y="0px"
	 width="134px" height="40px" viewBox="0 0 134 40" style="enable-background:new 0 0 134 40;" xml:space="preserve">
<style type="text/css">
	.st0{fill:#252525;}
</style>
<g>
	<g>
		<g>
			<polygon class="st0" points="107.87141,33.52219 26.80013,33.52219 33.25806,40 			"/>
			<path class="st0" d="M34.31016,7.32132v0.9792c-1.50529-0.96163-2.85542-1.52117-4.70397-1.52117
				c-5.67966,0-9.99435,5.19523-9.99435,11.57575c0,6.38224,4.31469,11.57438,9.99435,11.57438
				c1.84856,0,3.19868-0.55717,4.70397-1.52052v0.97848h4.99237V7.32132H34.31016z M29.60619,24.61576
				c-2.80055,0-4.85111-2.76631-4.85111-6.26065c0-3.49189,2.05056-6.25856,4.85111-6.25856
				c2.804,0,4.78031,2.76667,4.78031,6.25856C34.3865,21.84944,32.41019,24.61576,29.60619,24.61576z"/>
			<path class="st0" d="M74.3046,7.32132V20.2839c0,2.43144-1.66522,4.485-4.09092,4.485c-2.42362,0-4.09028-2.05356-4.09028-4.485
				V7.32132h-4.99273V20.2839c0,5.31869,3.62725,9.64558,8.93033,9.64558c2.45581,0,4.24359-1.36242,4.24359-1.36242v0.82038
				h4.99275V7.32132H74.3046z"/>
			<path class="st0" d="M120.82607,29.38744V16.42486c0-2.43144,1.66522-4.485,4.09093-4.485
				c2.42361,0,4.09028,2.05356,4.09028,4.485v12.96258H134V16.42486c0-5.31869-3.62724-9.64558-8.93033-9.64558
				c-2.45582,0-4.2436,1.36242-4.2436,1.36242V7.32132h-4.99274v22.06611H120.82607z"/>
			<path class="st0" d="M5.22173,29.38744v-8.54889h3.69331l6.3939,8.54889h6.53659l-7.72628-10.31555
				c2.40782-1.73359,3.98917-4.55263,3.98917-7.74588c0-5.24414-4.25113-9.50346-9.47918-9.50346H0v27.56489H5.22173z
				 M5.22173,7.05618h3.4075c2.34477,0,4.26241,1.91331,4.26241,4.26984c0,2.36286-1.91764,4.27481-4.26241,4.27481h-3.4075V7.05618
				z"/>
			<path class="st0" d="M92.75381,24.16613c-0.44848,0.30513-1.01443,0.54273-1.66959,0.54273
				c-0.81565,0-2.35354-0.6252-2.35354-2.70741V12.5586h4.26973V7.32106h-4.26973l-0.00037-5.4988h-4.9928l0.00037,5.4988h-2.6413
				v5.23754h2.6413v9.51941c-0.00136,4.92728,3.69951,7.87048,7.4227,7.87048c1.38741,0,3.31288-0.45576,4.88387-1.38895
				L92.75381,24.16613z"/>
			<polygon class="st0" points="51.71523,17.66468 60.27934,7.32132 53.28059,7.32132 47.29066,15.00837 47.29066,0 42.14948,0 
				42.14948,29.38744 47.29066,29.38744 47.29066,20.32307 54.65441,29.38744 61.64963,29.38744 			"/>
			<path class="st0" d="M104.2862,6.76139c-5.77856,0-9.92363,5.09359-9.92363,11.59296
				c0,6.83389,5.20285,11.59476,10.41962,11.59476c2.63331,0,6.00755-0.90566,8.84214-4.93952l-4.40974-2.55447
				c-3.41056,5.04284-9.09448,2.48329-9.75072-2.55915l14.38165,0.00317C115.07597,11.97367,109.96722,6.76139,104.2862,6.76139z
				 M108.64469,15.50614h-8.99224C100.70324,10.33789,107.67181,10.0414,108.64469,15.50614z"/>
		</g>
	</g>
</g>
</svg>
